<mxfile host="app.diagrams.net" modified="2020-11-02T07:23:15.496Z" agent="5.0 (X11)" etag="GOrjVxAJQ6wIi1Dyq1I4" version="13.8.8" type="github">
  <diagram name="Offline" id="c7488fd3-1785-93aa-aadb-54a6760d102a">
    <mxGraphModel dx="862" dy="802" grid="1" gridSize="10" guides="1" tooltips="1" connect="1" arrows="1" fold="1" page="1" pageScale="1" pageWidth="1100" pageHeight="850" background="#ffffff" math="0" shadow="0">
      <root>
        <mxCell id="0" />
        <mxCell id="1" parent="0" />
        <mxCell id="2b4e8129b02d487f-1" value="&lt;div style=&quot;font-size: 2px;&quot;&gt;Solicitud Credito Offline&lt;/div&gt;" style="swimlane;html=1;childLayout=stackLayout;horizontal=1;startSize=20;horizontalStack=0;rounded=0;shadow=0;labelBackgroundColor=none;strokeWidth=1;fontFamily=Verdana;fontSize=2;align=center;" parent="1" vertex="1">
          <mxGeometry x="180" y="70" width="960" height="577" as="geometry" />
        </mxCell>
        <mxCell id="2b4e8129b02d487f-2" value="&lt;div&gt;Cliente&lt;/div&gt;" style="swimlane;html=1;startSize=20;horizontal=0;" parent="2b4e8129b02d487f-1" vertex="1">
          <mxGeometry y="20" width="960" height="150" as="geometry" />
        </mxCell>
        <mxCell id="2b4e8129b02d487f-18" style="edgeStyle=orthogonalEdgeStyle;rounded=0;html=1;labelBackgroundColor=none;startArrow=none;startFill=0;startSize=5;endArrow=classicThin;endFill=1;endSize=5;jettySize=auto;orthogonalLoop=1;strokeWidth=1;fontFamily=Verdana;fontSize=8" parent="2b4e8129b02d487f-2" source="2b4e8129b02d487f-5" target="2b4e8129b02d487f-6" edge="1">
          <mxGeometry relative="1" as="geometry" />
        </mxCell>
        <mxCell id="2b4e8129b02d487f-5" value="" style="ellipse;whiteSpace=wrap;html=1;rounded=0;shadow=0;labelBackgroundColor=none;strokeWidth=1;fontFamily=Verdana;fontSize=8;align=center;" parent="2b4e8129b02d487f-2" vertex="1">
          <mxGeometry x="60" y="60" width="30" height="30" as="geometry" />
        </mxCell>
        <mxCell id="2b4e8129b02d487f-6" value="Solicitud Credito" style="rounded=1;whiteSpace=wrap;html=1;shadow=0;labelBackgroundColor=none;strokeWidth=1;fontFamily=Verdana;fontSize=8;align=center;" parent="2b4e8129b02d487f-2" vertex="1">
          <mxGeometry x="120" y="56.49999999999997" width="70" height="37" as="geometry" />
        </mxCell>
        <mxCell id="2b4e8129b02d487f-8" value="" style="ellipse;whiteSpace=wrap;html=1;rounded=0;shadow=0;labelBackgroundColor=none;strokeWidth=2;fontFamily=Verdana;fontSize=8;align=center;" parent="2b4e8129b02d487f-2" vertex="1">
          <mxGeometry x="760" y="65" width="30" height="30" as="geometry" />
        </mxCell>
        <mxCell id="EnDotuBsXbUlgUZoR76j-12" style="edgeStyle=orthogonalEdgeStyle;rounded=0;orthogonalLoop=1;jettySize=auto;html=1;exitX=0.5;exitY=0;exitDx=0;exitDy=0;entryX=1;entryY=0.5;entryDx=0;entryDy=0;fontSize=2;" parent="2b4e8129b02d487f-2" source="2b4e8129b02d487f-7" target="2b4e8129b02d487f-6" edge="1">
          <mxGeometry relative="1" as="geometry" />
        </mxCell>
        <mxCell id="2b4e8129b02d487f-7" value="Anexar documentaciÃ³n" style="rounded=1;whiteSpace=wrap;html=1;shadow=0;labelBackgroundColor=none;strokeWidth=1;fontFamily=Verdana;fontSize=8;align=center;" parent="2b4e8129b02d487f-2" vertex="1">
          <mxGeometry x="210" y="109.99999999999997" width="70" height="37" as="geometry" />
        </mxCell>
        <mxCell id="EnDotuBsXbUlgUZoR76j-29" style="edgeStyle=orthogonalEdgeStyle;rounded=0;orthogonalLoop=1;jettySize=auto;html=1;exitX=1;exitY=0.5;exitDx=0;exitDy=0;entryX=0;entryY=0.5;entryDx=0;entryDy=0;fontSize=9;" parent="2b4e8129b02d487f-2" source="EnDotuBsXbUlgUZoR76j-26" target="2b4e8129b02d487f-8" edge="1">
          <mxGeometry relative="1" as="geometry" />
        </mxCell>
        <mxCell id="EnDotuBsXbUlgUZoR76j-26" value="Notificacion cliente" style="rounded=1;whiteSpace=wrap;html=1;fontSize=9;" parent="2b4e8129b02d487f-2" vertex="1">
          <mxGeometry x="550" y="50" width="120" height="60" as="geometry" />
        </mxCell>
        <mxCell id="2b4e8129b02d487f-24" style="edgeStyle=orthogonalEdgeStyle;rounded=0;html=1;labelBackgroundColor=none;startArrow=none;startFill=0;startSize=5;endArrow=classicThin;endFill=1;endSize=5;jettySize=auto;orthogonalLoop=1;strokeWidth=1;fontFamily=Verdana;fontSize=8" parent="2b4e8129b02d487f-1" source="2b4e8129b02d487f-6" target="2b4e8129b02d487f-12" edge="1">
          <mxGeometry relative="1" as="geometry" />
        </mxCell>
        <mxCell id="EnDotuBsXbUlgUZoR76j-8" style="edgeStyle=orthogonalEdgeStyle;rounded=0;orthogonalLoop=1;jettySize=auto;html=1;exitX=0.5;exitY=1;exitDx=0;exitDy=0;fontSize=2;entryX=0.5;entryY=0;entryDx=0;entryDy=0;" parent="2b4e8129b02d487f-1" source="EnDotuBsXbUlgUZoR76j-6" target="EnDotuBsXbUlgUZoR76j-16" edge="1">
          <mxGeometry relative="1" as="geometry">
            <mxPoint x="170" y="520" as="targetPoint" />
          </mxGeometry>
        </mxCell>
        <mxCell id="EnDotuBsXbUlgUZoR76j-15" value="Si" style="edgeLabel;html=1;align=center;verticalAlign=middle;resizable=0;points=[];fontSize=9;" parent="EnDotuBsXbUlgUZoR76j-8" vertex="1" connectable="0">
          <mxGeometry x="-0.3421" y="1" relative="1" as="geometry">
            <mxPoint as="offset" />
          </mxGeometry>
        </mxCell>
        <mxCell id="EnDotuBsXbUlgUZoR76j-7" style="edgeStyle=orthogonalEdgeStyle;rounded=0;orthogonalLoop=1;jettySize=auto;html=1;fontSize=2;entryX=0.5;entryY=1;entryDx=0;entryDy=0;" parent="2b4e8129b02d487f-1" source="EnDotuBsXbUlgUZoR76j-6" target="2b4e8129b02d487f-7" edge="1">
          <mxGeometry relative="1" as="geometry">
            <mxPoint x="270" y="120" as="targetPoint" />
          </mxGeometry>
        </mxCell>
        <mxCell id="EnDotuBsXbUlgUZoR76j-14" value="No" style="edgeLabel;html=1;align=center;verticalAlign=middle;resizable=0;points=[];fontSize=9;" parent="EnDotuBsXbUlgUZoR76j-7" vertex="1" connectable="0">
          <mxGeometry x="-0.734" y="2" relative="1" as="geometry">
            <mxPoint x="7" y="16.67" as="offset" />
          </mxGeometry>
        </mxCell>
        <mxCell id="EnDotuBsXbUlgUZoR76j-27" style="edgeStyle=orthogonalEdgeStyle;rounded=0;orthogonalLoop=1;jettySize=auto;html=1;exitX=0.5;exitY=0;exitDx=0;exitDy=0;entryX=0.558;entryY=0.994;entryDx=0;entryDy=0;fontSize=9;entryPerimeter=0;" parent="2b4e8129b02d487f-1" source="EnDotuBsXbUlgUZoR76j-24" target="EnDotuBsXbUlgUZoR76j-31" edge="1">
          <mxGeometry relative="1" as="geometry">
            <Array as="points">
              <mxPoint x="662" y="400" />
              <mxPoint x="367" y="400" />
            </Array>
          </mxGeometry>
        </mxCell>
        <mxCell id="EnDotuBsXbUlgUZoR76j-33" value="No" style="edgeLabel;html=1;align=center;verticalAlign=middle;resizable=0;points=[];fontSize=9;" parent="EnDotuBsXbUlgUZoR76j-27" vertex="1" connectable="0">
          <mxGeometry x="-0.1531" relative="1" as="geometry">
            <mxPoint as="offset" />
          </mxGeometry>
        </mxCell>
        <mxCell id="EnDotuBsXbUlgUZoR76j-30" style="edgeStyle=orthogonalEdgeStyle;rounded=0;orthogonalLoop=1;jettySize=auto;html=1;exitX=0.5;exitY=0;exitDx=0;exitDy=0;entryX=0.5;entryY=1;entryDx=0;entryDy=0;fontSize=9;" parent="2b4e8129b02d487f-1" source="2b4e8129b02d487f-16" target="EnDotuBsXbUlgUZoR76j-26" edge="1">
          <mxGeometry relative="1" as="geometry" />
        </mxCell>
        <mxCell id="2b4e8129b02d487f-4" value="Ejecutivo de cuenta" style="swimlane;html=1;startSize=20;horizontal=0;" parent="2b4e8129b02d487f-1" vertex="1">
          <mxGeometry y="170" width="960" height="257" as="geometry" />
        </mxCell>
        <mxCell id="2b4e8129b02d487f-16" value="" style="shape=mxgraph.bpmn.shape;html=1;verticalLabelPosition=bottom;labelBackgroundColor=#ffffff;verticalAlign=top;perimeter=rhombusPerimeter;background=gateway;outline=none;symbol=parallelGw;rounded=1;shadow=0;strokeWidth=1;fontFamily=Verdana;fontSize=8;align=center;" parent="2b4e8129b02d487f-4" vertex="1">
          <mxGeometry x="900" y="6.394884621840902e-14" width="30" height="30" as="geometry" />
        </mxCell>
        <mxCell id="EnDotuBsXbUlgUZoR76j-5" style="edgeStyle=orthogonalEdgeStyle;rounded=0;orthogonalLoop=1;jettySize=auto;html=1;exitX=0.5;exitY=1;exitDx=0;exitDy=0;entryX=0.5;entryY=0;entryDx=0;entryDy=0;" parent="2b4e8129b02d487f-4" source="2b4e8129b02d487f-12" target="EnDotuBsXbUlgUZoR76j-3" edge="1">
          <mxGeometry relative="1" as="geometry" />
        </mxCell>
        <mxCell id="2b4e8129b02d487f-12" value="Regisrar Soliciud de credito" style="rounded=1;whiteSpace=wrap;html=1;shadow=0;labelBackgroundColor=none;strokeWidth=1;fontFamily=Verdana;fontSize=8;align=center;" parent="2b4e8129b02d487f-4" vertex="1">
          <mxGeometry x="120" y="53.49999999999996" width="70" height="37" as="geometry" />
        </mxCell>
        <mxCell id="EnDotuBsXbUlgUZoR76j-10" style="edgeStyle=orthogonalEdgeStyle;rounded=0;orthogonalLoop=1;jettySize=auto;html=1;exitX=0.5;exitY=1;exitDx=0;exitDy=0;entryX=0;entryY=0.5;entryDx=0;entryDy=0;fontSize=2;" parent="2b4e8129b02d487f-4" source="EnDotuBsXbUlgUZoR76j-3" target="EnDotuBsXbUlgUZoR76j-6" edge="1">
          <mxGeometry relative="1" as="geometry" />
        </mxCell>
        <mxCell id="EnDotuBsXbUlgUZoR76j-3" value="Recepcion y validacion Documentos" style="rounded=1;whiteSpace=wrap;html=1;shadow=0;labelBackgroundColor=none;strokeWidth=1;fontFamily=Verdana;fontSize=8;align=center;" parent="2b4e8129b02d487f-4" vertex="1">
          <mxGeometry x="120" y="119.99999999999994" width="70" height="37" as="geometry" />
        </mxCell>
        <mxCell id="EnDotuBsXbUlgUZoR76j-6" value="&lt;font style=&quot;font-size: 8px&quot;&gt;Documentos Correctos&lt;/font&gt;" style="rhombus;whiteSpace=wrap;html=1;" parent="2b4e8129b02d487f-4" vertex="1">
          <mxGeometry x="190" y="170" width="50" height="64" as="geometry" />
        </mxCell>
        <mxCell id="EnDotuBsXbUlgUZoR76j-32" style="edgeStyle=orthogonalEdgeStyle;rounded=0;orthogonalLoop=1;jettySize=auto;html=1;exitX=0.5;exitY=0;exitDx=0;exitDy=0;entryX=0;entryY=0.5;entryDx=0;entryDy=0;fontSize=9;" parent="2b4e8129b02d487f-4" source="EnDotuBsXbUlgUZoR76j-31" target="2b4e8129b02d487f-16" edge="1">
          <mxGeometry relative="1" as="geometry">
            <Array as="points">
              <mxPoint x="360" y="15" />
              <mxPoint x="890" y="15" />
            </Array>
          </mxGeometry>
        </mxCell>
        <mxCell id="EnDotuBsXbUlgUZoR76j-31" value="Informar Rechazo al cliente" style="rounded=1;whiteSpace=wrap;html=1;fontSize=9;" parent="2b4e8129b02d487f-4" vertex="1">
          <mxGeometry x="300" y="35" width="120" height="60" as="geometry" />
        </mxCell>
        <mxCell id="EnDotuBsXbUlgUZoR76j-41" style="edgeStyle=orthogonalEdgeStyle;rounded=0;orthogonalLoop=1;jettySize=auto;html=1;exitX=0.5;exitY=0;exitDx=0;exitDy=0;fontSize=9;" parent="2b4e8129b02d487f-4" source="EnDotuBsXbUlgUZoR76j-38" target="EnDotuBsXbUlgUZoR76j-40" edge="1">
          <mxGeometry relative="1" as="geometry" />
        </mxCell>
        <mxCell id="EnDotuBsXbUlgUZoR76j-38" value="Verificar documentaciÃ³n" style="rounded=1;whiteSpace=wrap;html=1;fontSize=9;" parent="2b4e8129b02d487f-4" vertex="1">
          <mxGeometry x="550" y="155" width="120" height="60" as="geometry" />
        </mxCell>
        <mxCell id="EnDotuBsXbUlgUZoR76j-50" style="edgeStyle=orthogonalEdgeStyle;rounded=0;orthogonalLoop=1;jettySize=auto;html=1;exitX=1;exitY=0.5;exitDx=0;exitDy=0;entryX=0;entryY=0.5;entryDx=0;entryDy=0;fontSize=9;" parent="2b4e8129b02d487f-4" source="EnDotuBsXbUlgUZoR76j-40" target="EnDotuBsXbUlgUZoR76j-42" edge="1">
          <mxGeometry relative="1" as="geometry" />
        </mxCell>
        <mxCell id="EnDotuBsXbUlgUZoR76j-40" value="Completa informaciÃ³n desembolso" style="rounded=1;whiteSpace=wrap;html=1;fontSize=9;" parent="2b4e8129b02d487f-4" vertex="1">
          <mxGeometry x="550" y="70" width="120" height="60" as="geometry" />
        </mxCell>
        <mxCell id="EnDotuBsXbUlgUZoR76j-59" style="edgeStyle=orthogonalEdgeStyle;rounded=0;orthogonalLoop=1;jettySize=auto;html=1;exitX=1;exitY=0.5;exitDx=0;exitDy=0;entryX=0.5;entryY=0;entryDx=0;entryDy=0;fontSize=9;" parent="2b4e8129b02d487f-4" source="EnDotuBsXbUlgUZoR76j-46" target="EnDotuBsXbUlgUZoR76j-56" edge="1">
          <mxGeometry relative="1" as="geometry" />
        </mxCell>
        <mxCell id="EnDotuBsXbUlgUZoR76j-46" value="Efectivo" style="rounded=1;whiteSpace=wrap;html=1;fontSize=9;" parent="2b4e8129b02d487f-4" vertex="1">
          <mxGeometry x="790" y="85" width="80" height="30" as="geometry" />
        </mxCell>
        <mxCell id="EnDotuBsXbUlgUZoR76j-48" value="Cheque" style="rounded=1;whiteSpace=wrap;html=1;fontSize=9;" parent="2b4e8129b02d487f-4" vertex="1">
          <mxGeometry x="790" y="124.5" width="80" height="30" as="geometry" />
        </mxCell>
        <mxCell id="EnDotuBsXbUlgUZoR76j-60" style="edgeStyle=orthogonalEdgeStyle;rounded=0;orthogonalLoop=1;jettySize=auto;html=1;exitX=1;exitY=0.5;exitDx=0;exitDy=0;entryX=0.5;entryY=1;entryDx=0;entryDy=0;fontSize=9;" parent="2b4e8129b02d487f-4" source="EnDotuBsXbUlgUZoR76j-49" target="EnDotuBsXbUlgUZoR76j-56" edge="1">
          <mxGeometry relative="1" as="geometry" />
        </mxCell>
        <mxCell id="EnDotuBsXbUlgUZoR76j-49" value="Otro" style="rounded=1;whiteSpace=wrap;html=1;fontSize=9;" parent="2b4e8129b02d487f-4" vertex="1">
          <mxGeometry x="790" y="170" width="80" height="30" as="geometry" />
        </mxCell>
        <mxCell id="EnDotuBsXbUlgUZoR76j-44" value="" style="group" parent="2b4e8129b02d487f-4" vertex="1" connectable="0">
          <mxGeometry x="720" y="122" width="35" height="35" as="geometry" />
        </mxCell>
        <mxCell id="EnDotuBsXbUlgUZoR76j-42" value="" style="rhombus;whiteSpace=wrap;html=1;fontSize=9;" parent="EnDotuBsXbUlgUZoR76j-44" vertex="1">
          <mxGeometry width="35" height="35" as="geometry" />
        </mxCell>
        <mxCell id="EnDotuBsXbUlgUZoR76j-43" value="" style="ellipse;whiteSpace=wrap;html=1;aspect=fixed;fontSize=9;" parent="EnDotuBsXbUlgUZoR76j-44" vertex="1">
          <mxGeometry x="7.5" y="7.5" width="20" height="20" as="geometry" />
        </mxCell>
        <mxCell id="EnDotuBsXbUlgUZoR76j-51" style="edgeStyle=orthogonalEdgeStyle;rounded=0;orthogonalLoop=1;jettySize=auto;html=1;exitX=1;exitY=0.5;exitDx=0;exitDy=0;entryX=0;entryY=0.5;entryDx=0;entryDy=0;fontSize=9;" parent="2b4e8129b02d487f-4" source="EnDotuBsXbUlgUZoR76j-42" target="EnDotuBsXbUlgUZoR76j-48" edge="1">
          <mxGeometry relative="1" as="geometry" />
        </mxCell>
        <mxCell id="EnDotuBsXbUlgUZoR76j-52" style="edgeStyle=orthogonalEdgeStyle;rounded=0;orthogonalLoop=1;jettySize=auto;html=1;exitX=0.5;exitY=0;exitDx=0;exitDy=0;entryX=0;entryY=0.5;entryDx=0;entryDy=0;fontSize=9;" parent="2b4e8129b02d487f-4" source="EnDotuBsXbUlgUZoR76j-42" target="EnDotuBsXbUlgUZoR76j-46" edge="1">
          <mxGeometry relative="1" as="geometry" />
        </mxCell>
        <mxCell id="EnDotuBsXbUlgUZoR76j-53" style="edgeStyle=orthogonalEdgeStyle;rounded=0;orthogonalLoop=1;jettySize=auto;html=1;exitX=0.5;exitY=1;exitDx=0;exitDy=0;entryX=0;entryY=0.5;entryDx=0;entryDy=0;fontSize=9;" parent="2b4e8129b02d487f-4" source="EnDotuBsXbUlgUZoR76j-42" target="EnDotuBsXbUlgUZoR76j-49" edge="1">
          <mxGeometry relative="1" as="geometry" />
        </mxCell>
        <mxCell id="EnDotuBsXbUlgUZoR76j-61" style="edgeStyle=orthogonalEdgeStyle;rounded=0;orthogonalLoop=1;jettySize=auto;html=1;exitX=1;exitY=0.5;exitDx=0;exitDy=0;entryX=0.5;entryY=1;entryDx=0;entryDy=0;fontSize=9;" parent="2b4e8129b02d487f-4" source="EnDotuBsXbUlgUZoR76j-56" target="2b4e8129b02d487f-16" edge="1">
          <mxGeometry relative="1" as="geometry" />
        </mxCell>
        <mxCell id="EnDotuBsXbUlgUZoR76j-56" value="" style="rhombus;whiteSpace=wrap;html=1;fontSize=9;" parent="2b4e8129b02d487f-4" vertex="1">
          <mxGeometry x="895" y="122.5" width="35" height="35" as="geometry" />
        </mxCell>
        <mxCell id="EnDotuBsXbUlgUZoR76j-57" value="" style="ellipse;whiteSpace=wrap;html=1;aspect=fixed;fontSize=9;" parent="2b4e8129b02d487f-4" vertex="1">
          <mxGeometry x="902.5" y="130" width="20" height="20" as="geometry" />
        </mxCell>
        <mxCell id="EnDotuBsXbUlgUZoR76j-58" style="edgeStyle=orthogonalEdgeStyle;rounded=0;orthogonalLoop=1;jettySize=auto;html=1;exitX=1;exitY=0.5;exitDx=0;exitDy=0;fontSize=9;entryX=0;entryY=0.5;entryDx=0;entryDy=0;" parent="2b4e8129b02d487f-4" source="EnDotuBsXbUlgUZoR76j-48" target="EnDotuBsXbUlgUZoR76j-56" edge="1">
          <mxGeometry relative="1" as="geometry">
            <mxPoint x="890" y="139.66666666666663" as="targetPoint" />
          </mxGeometry>
        </mxCell>
        <mxCell id="2b4e8129b02d487f-3" value="&lt;div&gt;Analista de credito&lt;/div&gt;" style="swimlane;html=1;startSize=20;horizontal=0;" parent="2b4e8129b02d487f-1" vertex="1">
          <mxGeometry y="427" width="960" height="150" as="geometry" />
        </mxCell>
        <mxCell id="EnDotuBsXbUlgUZoR76j-25" style="edgeStyle=orthogonalEdgeStyle;rounded=0;orthogonalLoop=1;jettySize=auto;html=1;exitX=1;exitY=0.5;exitDx=0;exitDy=0;entryX=0;entryY=0.5;entryDx=0;entryDy=0;fontSize=9;" parent="2b4e8129b02d487f-3" source="2b4e8129b02d487f-14" target="EnDotuBsXbUlgUZoR76j-24" edge="1">
          <mxGeometry relative="1" as="geometry" />
        </mxCell>
        <mxCell id="2b4e8129b02d487f-14" value="Registrar Score" style="rounded=1;whiteSpace=wrap;html=1;shadow=0;labelBackgroundColor=none;strokeWidth=1;fontFamily=Verdana;fontSize=8;align=center;" parent="2b4e8129b02d487f-3" vertex="1">
          <mxGeometry x="500" y="43" width="70" height="37" as="geometry" />
        </mxCell>
        <mxCell id="EnDotuBsXbUlgUZoR76j-20" style="edgeStyle=orthogonalEdgeStyle;rounded=0;orthogonalLoop=1;jettySize=auto;html=1;exitX=1;exitY=0.5;exitDx=0;exitDy=0;entryX=0;entryY=0.5;entryDx=0;entryDy=0;fontSize=9;" parent="2b4e8129b02d487f-3" source="EnDotuBsXbUlgUZoR76j-16" target="EnDotuBsXbUlgUZoR76j-18" edge="1">
          <mxGeometry relative="1" as="geometry">
            <Array as="points">
              <mxPoint x="230" y="73" />
              <mxPoint x="310" y="73" />
              <mxPoint x="310" y="32" />
            </Array>
          </mxGeometry>
        </mxCell>
        <mxCell id="EnDotuBsXbUlgUZoR76j-21" style="edgeStyle=orthogonalEdgeStyle;rounded=0;orthogonalLoop=1;jettySize=auto;html=1;exitX=1;exitY=0.5;exitDx=0;exitDy=0;entryX=0;entryY=0.5;entryDx=0;entryDy=0;fontSize=9;" parent="2b4e8129b02d487f-3" source="EnDotuBsXbUlgUZoR76j-16" target="EnDotuBsXbUlgUZoR76j-19" edge="1">
          <mxGeometry relative="1" as="geometry">
            <Array as="points">
              <mxPoint x="230" y="73" />
              <mxPoint x="310" y="73" />
              <mxPoint x="310" y="82" />
            </Array>
          </mxGeometry>
        </mxCell>
        <mxCell id="EnDotuBsXbUlgUZoR76j-16" value="Analisis de riesgo" style="rounded=1;whiteSpace=wrap;html=1;fontSize=9;" parent="2b4e8129b02d487f-3" vertex="1">
          <mxGeometry x="150" y="43" width="80" height="40" as="geometry" />
        </mxCell>
        <mxCell id="EnDotuBsXbUlgUZoR76j-22" style="edgeStyle=orthogonalEdgeStyle;rounded=0;orthogonalLoop=1;jettySize=auto;html=1;exitX=1;exitY=0.5;exitDx=0;exitDy=0;entryX=0;entryY=0.5;entryDx=0;entryDy=0;fontSize=9;" parent="2b4e8129b02d487f-3" source="EnDotuBsXbUlgUZoR76j-18" target="2b4e8129b02d487f-14" edge="1">
          <mxGeometry relative="1" as="geometry" />
        </mxCell>
        <mxCell id="EnDotuBsXbUlgUZoR76j-18" value="Lista Negativos" style="rounded=1;whiteSpace=wrap;html=1;fontSize=9;" parent="2b4e8129b02d487f-3" vertex="1">
          <mxGeometry x="330" y="13" width="110" height="37" as="geometry" />
        </mxCell>
        <mxCell id="EnDotuBsXbUlgUZoR76j-19" value="Verifica Vida Crediticia" style="rounded=1;whiteSpace=wrap;html=1;fontSize=9;" parent="2b4e8129b02d487f-3" vertex="1">
          <mxGeometry x="330" y="63" width="110" height="37" as="geometry" />
        </mxCell>
        <mxCell id="EnDotuBsXbUlgUZoR76j-35" style="edgeStyle=orthogonalEdgeStyle;rounded=0;orthogonalLoop=1;jettySize=auto;html=1;exitX=0.5;exitY=1;exitDx=0;exitDy=0;entryX=0.5;entryY=1;entryDx=0;entryDy=0;fontSize=9;" parent="2b4e8129b02d487f-3" source="EnDotuBsXbUlgUZoR76j-24" target="EnDotuBsXbUlgUZoR76j-34" edge="1">
          <mxGeometry relative="1" as="geometry" />
        </mxCell>
        <mxCell id="EnDotuBsXbUlgUZoR76j-37" value="Si" style="edgeLabel;html=1;align=center;verticalAlign=middle;resizable=0;points=[];fontSize=9;" parent="EnDotuBsXbUlgUZoR76j-35" vertex="1" connectable="0">
          <mxGeometry x="0.1386" y="1" relative="1" as="geometry">
            <mxPoint as="offset" />
          </mxGeometry>
        </mxCell>
        <mxCell id="EnDotuBsXbUlgUZoR76j-24" value="&lt;div&gt;Solicitud aprobada?&lt;/div&gt;&lt;div&gt;&lt;br&gt;&lt;/div&gt;" style="rhombus;whiteSpace=wrap;html=1;fontSize=9;" parent="2b4e8129b02d487f-3" vertex="1">
          <mxGeometry x="630" y="30" width="63" height="63" as="geometry" />
        </mxCell>
        <mxCell id="EnDotuBsXbUlgUZoR76j-34" value="AutorizaciÃ³n desembolso" style="rounded=1;whiteSpace=wrap;html=1;fontSize=9;" parent="2b4e8129b02d487f-3" vertex="1">
          <mxGeometry x="790" y="30" width="120" height="60" as="geometry" />
        </mxCell>
        <mxCell id="EnDotuBsXbUlgUZoR76j-39" style="edgeStyle=orthogonalEdgeStyle;rounded=0;orthogonalLoop=1;jettySize=auto;html=1;exitX=0.5;exitY=0;exitDx=0;exitDy=0;entryX=0.5;entryY=1;entryDx=0;entryDy=0;fontSize=9;" parent="2b4e8129b02d487f-1" source="EnDotuBsXbUlgUZoR76j-34" target="EnDotuBsXbUlgUZoR76j-38" edge="1">
          <mxGeometry relative="1" as="geometry" />
        </mxCell>
        <mxCell id="EnDotuBsXbUlgUZoR76j-23" style="edgeStyle=orthogonalEdgeStyle;rounded=0;orthogonalLoop=1;jettySize=auto;html=1;exitX=1;exitY=0.5;exitDx=0;exitDy=0;fontSize=9;" parent="1" source="EnDotuBsXbUlgUZoR76j-19" edge="1">
          <mxGeometry relative="1" as="geometry">
            <mxPoint x="680" y="560" as="targetPoint" />
          </mxGeometry>
        </mxCell>
      </root>
    </mxGraphModel>
  </diagram>
</mxfile>
